<?xml version="1.0" encoding="UTF-8"?>
<svg id="Layer_1" data-name="Layer 1" xmlns="http://www.w3.org/2000/svg" viewBox="0 0 279.5 279.5">
  <defs>
    <style>
      .cls-1 {
        fill: #fff;
      }

      .cls-1, .cls-2 {
        stroke-width: 0px;
      }

      .cls-2 {
        fill: #245c53;
      }

      .cls-3 {
        fill: none;
        stroke: #3a6e64;
        stroke-miterlimit: 10;
        stroke-width: 3px;
      }
    </style>
  </defs>
  <rect class="cls-1" x="1.14" y=".83" width="278" height="278" rx="25.76" ry="25.76"/>
  <circle class="cls-2" cx="140.14" cy="139.83" r="79.5"/>
  <circle class="cls-3" cx="140.14" cy="139.83" r="84.5"/>
  <path class="cls-1" d="m161.42,139.83l16.15-16.15c4.67-4.67,4.67-12.3,0-16.97l-4.31-4.31c-4.67-4.67-12.3-4.67-16.97,0l-16.15,16.15-16.15-16.15c-4.67-4.67-12.3-4.67-16.97,0l-4.31,4.31c-4.67,4.67-4.67,12.3,0,16.97l16.15,16.15-16.15,16.15c-4.67,4.67-4.67,12.3,0,16.97l4.31,4.31c4.67,4.67,12.3,4.67,16.97,0l16.15-16.15,16.15,16.15c4.67,4.67,12.3,4.67,16.97,0l4.31-4.31c4.67-4.67,4.67-12.3,0-16.97l-16.15-16.15Z"/>
</svg>