<?xml version="1.0" encoding="UTF-8"?>
<svg id="Layer_1" data-name="Layer 1" xmlns="http://www.w3.org/2000/svg" viewBox="0 0 278.5 279.5">
  <defs>
    <style>
      .cls-1 {
        fill: #c7e2dc;
      }

      .cls-1, .cls-2 {
        stroke-width: 0px;
      }

      .cls-2 {
        fill: #fff;
      }
    </style>
  </defs>
  <rect class="cls-2" x=".25" y="1.25" width="278" height="278" rx="25.76" ry="25.76"/>
  <circle class="cls-1" cx="127.75" cy="128.75" r="30.5"/>
  <path class="cls-1" d="m109.03,111.25s-32.13-24.03-31.11-58.51c.14-4.64,5.82-6.87,9.08-3.56,25.09,25.46,24.25,58.07,24.25,58.07"/>
  <path class="cls-1" d="m141.37,114.25s34.54-25.83,30.86-62.35c-.31-3.11-4-4.6-6.41-2.6-30.17,25.04-26.58,60.95-26.58,60.95"/>
  <path class="cls-1" d="m113.25,147.25s-15,33-16,60,4.26,72,4.26,72h81.39s-2.65-54-10.65-80-27.43-59-27.43-59l-31.57,7Z"/>
  <polygon class="cls-1" points="216.34 99.46 225.53 104.95 235.27 100.5 232.88 110.94 240.12 118.82 229.46 119.78 224.2 129.1 219.99 119.25 209.5 117.13 217.57 110.09 216.34 99.46"/>
  <polygon class="cls-1" points="36.34 113.46 45.53 118.95 55.27 114.5 52.88 124.94 60.12 132.82 49.46 133.78 44.2 143.1 39.99 133.25 29.5 131.13 37.57 124.09 36.34 113.46"/>
  <polygon class="cls-1" points="130.34 30.46 139.53 35.95 149.27 31.5 146.88 41.94 154.12 49.82 143.46 50.78 138.2 60.1 133.99 50.25 123.5 48.13 131.57 41.09 130.34 30.46"/>
  <polygon class="cls-1" points="51.34 188.46 60.53 193.95 70.27 189.5 67.88 199.94 75.12 207.82 64.46 208.78 59.2 218.1 54.99 208.25 44.5 206.13 52.57 199.09 51.34 188.46"/>
  <polygon class="cls-1" points="196.34 180.46 205.53 185.95 215.27 181.5 212.88 191.94 220.12 199.82 209.46 200.78 204.2 210.1 199.99 200.25 189.5 198.13 197.57 191.09 196.34 180.46"/>
</svg>