<?xml version="1.0" encoding="UTF-8"?>
<svg id="Layer_1" data-name="Layer 1" xmlns="http://www.w3.org/2000/svg" viewBox="0 0 97 136.5">
  <defs>
    <style>
      .cls-1 {
        fill: #3a6e64;
        stroke-width: 0px;
      }
    </style>
  </defs>
  <path class="cls-1" d="m73.97,52.61s-.02-.05-.03-.08c-1.63-3.76-6.19-5.16-9.75-3.13-4.59,2.61-9.9,4.11-15.56,4.11s-10.97-1.49-15.56-4.11c-3.56-2.03-8.12-.62-9.75,3.13-.04.1-.09.21-.13.31-.06-.41-15.25,52.46-21.47,73.87-1.28,4.4,2.02,8.79,6.6,8.79,12.98,0,26.64,0,40.3,0s27.33,0,40.3,0c4.58,0,7.88-4.39,6.6-8.79-5.85-20.13-19.63-68.08-21.3-73.39-.08-.24-.17-.47-.26-.71Z"/>
  <circle class="cls-1" cx="48.63" cy="25.34" r="25.1"/>
</svg>