<?xml version="1.0" encoding="UTF-8"?>
<svg id="Layer_1" data-name="Layer 1" xmlns="http://www.w3.org/2000/svg" viewBox="0 0 279.5 279.5">
  <defs>
    <style>
      .cls-1 {
        fill: #fff;
      }

      .cls-1, .cls-2 {
        stroke-width: 0px;
      }

      .cls-2 {
        fill: #9ac1b9;
      }
    </style>
  </defs>
  <rect class="cls-1" x="1.14" y=".83" width="278" height="278" rx="25.76" ry="25.76"/>
  <circle class="cls-2" cx="140.14" cy="139.83" r="79.5"/>
  <path class="cls-2" d="m140.14,225.83c-47.42,0-86-38.58-86-86s38.58-86,86-86,86,38.58,86,86-38.58,86-86,86Zm0-169c-45.77,0-83,37.23-83,83s37.23,83,83,83,83-37.23,83-83-37.23-83-83-83Z"/>
  <path class="cls-1" d="m161.42,139.83l16.15-16.15c4.67-4.67,4.67-12.3,0-16.97l-4.31-4.31c-4.67-4.67-12.3-4.67-16.97,0l-16.15,16.15-16.15-16.15c-4.67-4.67-12.3-4.67-16.97,0l-4.31,4.31c-4.67,4.67-4.67,12.3,0,16.97l16.15,16.15-16.15,16.15c-4.67,4.67-4.67,12.3,0,16.97l4.31,4.31c4.67,4.67,12.3,4.67,16.97,0l16.15-16.15,16.15,16.15c4.67,4.67,12.3,4.67,16.97,0l4.31-4.31c4.67-4.67,4.67-12.3,0-16.97l-16.15-16.15Z"/>
</svg>