<?xml version="1.0" encoding="UTF-8"?>
<svg id="Layer_1" data-name="Layer 1" xmlns="http://www.w3.org/2000/svg" viewBox="0 0 204.43 205.43">
  <defs>
    <style>
      .cls-1 {
        fill: #2f2f2f;
      }

      .cls-1, .cls-2, .cls-3 {
        stroke-width: 0px;
      }

      .cls-2 {
        fill: #3a6e64;
      }

      .cls-3 {
        fill: #fff;
      }
    </style>
  </defs>
  <path class="cls-2" d="m198.43,102.93c0-53.85-43.65-97.5-97.5-97.5S3.43,49.09,3.43,102.93c0,40.39,24.56,75.04,59.55,89.84,5.16-21.16,17.24-70.62,22.07-89.69-7.72-5.14-12.8-13.92-12.8-23.88,0-15.84,12.84-28.68,28.68-28.68s28.68,12.84,28.68,28.68c0,9.96-5.08,18.73-12.79,23.87l25.74,88.05c33.03-15.62,55.88-49.23,55.88-88.19Z"/>
  <path class="cls-3" d="m129.61,79.2c0-15.84-12.84-28.68-28.68-28.68s-28.68,12.84-28.68,28.68c0,9.97,5.09,18.74,12.8,23.88-4.83,19.06-16.91,68.53-22.07,89.69,11.66,4.93,24.49,7.66,37.95,7.66,14.89,0,29-3.34,41.62-9.31l-25.74-88.05c7.71-5.14,12.79-13.91,12.79-23.87Z"/>
  <circle class="cls-1" cx="82.36" cy="81.27" r="3.1"/>
  <circle class="cls-1" cx="102.48" cy="81.27" r="3.1"/>
  <path class="cls-2" d="m85.06,103.08s12.78,7.59,23.61,2.95c-12.38,10.83-26.31,1.5-26.31,1.5"/>
</svg>