<?xml version="1.0" encoding="UTF-8"?>
<svg id="Layer_1" data-name="Layer 1" xmlns="http://www.w3.org/2000/svg" viewBox="0 0 449.48 91.48">
  <defs>
    <style>
      .cls-1 {
        fill: #ea7f09;
      }

      .cls-1, .cls-2 {
        stroke-width: 0px;
      }

      .cls-2 {
        fill: #fff;
      }
    </style>
  </defs>
  <g>
    <path class="cls-2" d="m4.58,86.02V3.35h15.75v30.02c4.51-6.31,10.5-9.47,17.96-9.47,3.94,0,7.44.76,10.52,2.28,3.08,1.52,5.68,3.67,7.81,6.46,2.13,2.79,3.75,6.09,4.86,9.9,1.11,3.81,1.66,8.02,1.66,12.61,0,5.09-.66,9.64-1.97,13.66-1.31,4.02-3.12,7.42-5.41,10.21-2.3,2.79-5.07,4.92-8.3,6.4-3.24,1.48-6.75,2.21-10.52,2.21-7.55,0-13.16-2.99-16.85-8.98l-.12,7.38H4.58Zm28.66-11.44c4.02,0,7.3-1.7,9.84-5.11,2.54-3.4,3.81-7.81,3.81-13.22,0-12.47-4.59-18.7-13.78-18.7s-13.41,6.56-13.41,19.68c0,5.17,1.29,9.35,3.88,12.55,2.58,3.2,5.8,4.8,9.66,4.8Z"/>
    <path class="cls-2" d="m98.2,87.62c-4.92,0-9.31-.78-13.16-2.34-3.86-1.56-7.12-3.73-9.78-6.52-2.67-2.79-4.7-6.15-6.09-10.09-1.4-3.94-2.09-8.24-2.09-12.92s.72-9.1,2.15-13.04c1.43-3.94,3.51-7.3,6.21-10.09,2.71-2.79,5.97-4.94,9.78-6.46,3.81-1.52,8.14-2.28,12.98-2.28s9.02.76,12.79,2.28c3.77,1.52,6.99,3.65,9.66,6.4,2.66,2.75,4.72,6.09,6.15,10.03,1.43,3.94,2.15,8.33,2.15,13.16s-.72,9.21-2.15,13.1c-1.44,3.9-3.49,7.24-6.15,10.03-2.67,2.79-5.9,4.94-9.72,6.46-3.81,1.52-8.06,2.28-12.73,2.28Zm0-13.41c9.76,0,14.64-6.15,14.64-18.45s-4.88-18.33-14.64-18.33-14.64,6.11-14.64,18.33,4.88,18.45,14.64,18.45Z"/>
    <path class="cls-2" d="m176.08,86.02l-.12-7.38c-3.69,5.99-9.31,8.98-16.85,8.98-3.86,0-7.38-.74-10.58-2.21-3.2-1.48-5.95-3.61-8.24-6.4-2.3-2.79-4.1-6.19-5.41-10.21-1.31-4.02-1.97-8.57-1.97-13.66,0-4.59.55-8.8,1.66-12.61s2.73-7.11,4.86-9.9c2.13-2.79,4.74-4.94,7.81-6.46,3.07-1.52,6.58-2.28,10.52-2.28,7.46,0,13.45,3.16,17.96,9.47V3.35h15.75v82.67h-15.38Zm-13.29-11.44c3.85,0,7.07-1.6,9.66-4.8,2.58-3.2,3.88-7.38,3.88-12.55,0-13.12-4.47-19.68-13.41-19.68s-13.78,6.23-13.78,18.7c0,5.41,1.27,9.82,3.81,13.22,2.54,3.4,5.82,5.11,9.84,5.11Z"/>
    <path class="cls-2" d="m204.12,86.02v-49.21h-8.98v-11.32h8.98c0-14.76,8.57-22.14,25.71-22.14v12.92c-2.05,0-3.71.14-4.98.43-1.27.29-2.28.8-3.01,1.54-.74.74-1.25,1.7-1.54,2.89-.29,1.19-.43,2.64-.43,4.37h10.33v11.32h-10.33v49.21h-15.75Z"/>
    <path class="cls-2" d="m233.4,86.02V25.5h15.01v7.26c1.31-2.05,2.69-3.65,4.12-4.8,1.43-1.15,2.91-2.03,4.43-2.64,1.52-.62,3.05-1,4.61-1.17,1.56-.16,3.16-.25,4.8-.25h2.09v16.36c-1.48-.25-2.95-.37-4.43-.37-9.76,0-14.64,4.88-14.64,14.64v31.49h-15.99Z"/>
    <path class="cls-2" d="m283.6,59.94c.25,4.59,1.58,8.24,4,10.95,2.42,2.71,5.6,4.06,9.53,4.06,2.62,0,4.94-.59,6.95-1.78,2.01-1.19,3.3-2.85,3.88-4.98h16.49c-1.89,6.23-5.17,11.03-9.84,14.39-4.67,3.36-10.25,5.04-16.73,5.04-20.18,0-30.26-10.99-30.26-32.97,0-4.68.65-8.9,1.97-12.67,1.31-3.77,3.22-7.01,5.72-9.72,2.5-2.71,5.56-4.78,9.17-6.21,3.61-1.43,7.75-2.15,12.42-2.15,9.35,0,16.42,2.99,21.22,8.98,4.8,5.99,7.2,15.01,7.2,27.07h-41.7Zm25.22-10.09c-.08-2.21-.47-4.16-1.17-5.84-.7-1.68-1.62-3.08-2.77-4.18-1.15-1.11-2.46-1.93-3.94-2.46-1.48-.53-3-.8-4.55-.8-3.2,0-5.97,1.17-8.3,3.51-2.34,2.34-3.67,5.6-4,9.78h24.73Z"/>
    <path class="cls-2" d="m368.97,86.02v-36.66c0-4.67-.78-7.83-2.34-9.47-1.56-1.64-4.22-2.46-8-2.46-8.29,0-12.43,4.63-12.43,13.9v34.69h-15.99V25.5h15.25v8.86c1.89-3.44,4.39-6.05,7.5-7.81,3.12-1.76,7.14-2.65,12.06-2.65,2.87,0,5.54.43,8,1.29,2.46.86,4.57,2.15,6.33,3.88,1.76,1.72,3.16,3.83,4.18,6.34,1.02,2.5,1.54,5.39,1.54,8.67v41.95h-16.12Z"/>
    <path class="cls-2" d="m427.9,43.83c-.41-2.79-1.46-4.82-3.14-6.09-1.68-1.27-4.24-1.91-7.69-1.91s-5.76.39-7.44,1.17c-1.68.78-2.52,2.11-2.52,4,0,1.64.84,2.95,2.52,3.94,1.68.98,4.12,1.93,7.32,2.83,5.25,1.48,9.68,2.73,13.29,3.75,3.61,1.03,6.5,2.24,8.67,3.63,2.17,1.4,3.73,3.14,4.68,5.23.94,2.09,1.41,4.9,1.41,8.43,0,5.41-2.26,9.9-6.77,13.47-4.51,3.57-11.19,5.35-20.05,5.35-4.35,0-8.29-.49-11.81-1.48-3.53-.98-6.54-2.4-9.04-4.24-2.5-1.84-4.43-4.06-5.78-6.64-1.35-2.58-2.07-5.47-2.15-8.67h16.49c0,2.87,1.13,5.09,3.38,6.64,2.25,1.56,5.19,2.34,8.8,2.34,3.03,0,5.64-.47,7.81-1.42,2.17-.94,3.26-2.4,3.26-4.37,0-2.21-.8-3.81-2.4-4.8-1.6-.98-4.04-1.84-7.32-2.58-5.9-1.31-10.66-2.69-14.27-4.12-3.61-1.43-6.42-3.01-8.43-4.74-2.01-1.72-3.36-3.61-4.06-5.66-.7-2.05-1.05-4.35-1.05-6.89,0-2.29.47-4.47,1.41-6.52.94-2.05,2.44-3.85,4.49-5.41,2.05-1.56,4.72-2.81,8-3.75,3.28-.94,7.3-1.42,12.06-1.42,8.69,0,15.05,1.77,19.07,5.29,4.02,3.53,6.23,8.41,6.64,14.64h-15.38Z"/>
  </g>
  <rect class="cls-1" x="2.07" y="12.41" width="20.32" height="7.9" transform="translate(-3.23 3.01) rotate(-12.41)"/>
</svg>