<?xml version="1.0" encoding="UTF-8"?>
<svg id="Layer_1" data-name="Layer 1" xmlns="http://www.w3.org/2000/svg" viewBox="0 0 278.5 279.5">
  <defs>
    <style>
      .cls-1 {
        fill: #c7e2dc;
      }

      .cls-1, .cls-2, .cls-3 {
        stroke-width: 0px;
      }

      .cls-2 {
        fill: #fff;
      }

      .cls-3 {
        fill: #9ac1b9;
      }
    </style>
  </defs>
  <rect class="cls-2" x=".25" y="1.25" width="278" height="278" rx="25.76" ry="25.76"/>
  <circle class="cls-1" cx="177.75" cy="94.75" r="47.5"/>
  <circle class="cls-3" cx="82.75" cy="153.75" r="34.5"/>
  <circle class="cls-2" cx="173.25" cy="92.25" r="43"/>
  <circle class="cls-1" cx="185.25" cy="68.25" r="3"/>
  <circle class="cls-1" cx="157.25" cy="86.25" r="3"/>
  <circle class="cls-1" cx="185.25" cy="113.25" r="3"/>
  <circle class="cls-1" cx="203.25" cy="78.25" r="3"/>
  <circle class="cls-1" cx="189.75" cy="90.75" r="7.5"/>
  <path class="cls-3" d="m50.01,140.59c1.1-3.26,2.49-6.86,5.62-8.27,1.05-.47,2.21-.65,3.35-.81,13.11-1.86,44.66.38,58.27,8.74,5,3.08-1.73,7.73,0,14-17.68-12.38-46.38-18.94-67.24-13.66Z"/>
  <path class="cls-3" d="m58.25,134.25s-19,15-29,11l6,5s12.96,1.04,27-13c3-3-4-3-4-3Z"/>
  <path class="cls-3" d="m50.01,164.63s39.13,17.34,43.24,30.62c2-43-45-36-45-36,0,0,.52,3.76,1.76,5.38Z"/>
  <path class="cls-3" d="m60.75,162.25c-23.21,0-47.7,29.23-60.5,58.28v32.96c0,14.23,11.53,25.76,25.76,25.76h90.64c.39-2.23.6-4.87.6-8,0-33.41-23.09-109-56.5-109Z"/>
</svg>