<?xml version="1.0" encoding="UTF-8"?>
<svg id="Layer_1" data-name="Layer 1" xmlns="http://www.w3.org/2000/svg" viewBox="0 0 278.5 279.5">
  <defs>
    <style>
      .cls-1 {
        fill: #fff;
      }

      .cls-1, .cls-2 {
        stroke-width: 0px;
      }

      .cls-2 {
        fill: #245c53;
      }
    </style>
  </defs>
  <rect class="cls-1" x=".37" y="1.25" width="278" height="278" rx="25.76" ry="25.76"/>
  <path class="cls-2" d="m236.45,175.62c-1.69,1.27-3.61,2.22-5.68,2.57,0,0,0,0,0-.01,1.35-.77,2.58-1.74,3.7-2.84,8.55-8.35,10.84-24.43,10.84-24.43,0,0-15.8,1.92-24.39,10.08-1.23,1.17-2.31,2.47-3.18,3.9,0,0,0,0,0,0,.4-2.19,1.49-4.19,2.9-5.92-1.1-6.86-3.52-12.03-3.52-12.03-19.77,16.14-15.6,29.62-11.43,36.15l-6.78,6.65c.83-10.82-3.96-21.07-3.96-21.07-19.77,16.14-15.6,29.62-11.43,36.15l-6.78,6.65c.83-10.82-3.96-21.07-3.96-21.07-.02.02-.04.04-.06.06-.02-.04-.02-.06-.02-.06-3.53,2.88-6.3,5.68-8.44,8.37l-3.84-40.69c6.49-.57,12.35-4.87,17.44-12.83,4.95-7.74,8.14-17.35,9.94-24.04,1.49-5.53.3-11.53-3.18-16.08-.27-.36-.56-.69-.86-1.03h-42.15c-.41,0-.79.26-.85.66-.29,1.82-.9,6.9.86,9.48,1.96,2.89,6.03,4.55,10.64,5.76.7.18,1.42.36,2.15.53,1.62.37,3.27.71,4.9,1.03.31.06.33.5.02.57-1.17.28-2.96.77-4.92,1.54-.69.27-1.41.58-2.12.93-1.42.69-2.83,1.52-4.11,2.54-2.45,1.95-4.36,4.54-4.64,7.95-.03.34-.48.45-.6.14-.15-.37-.28-.73-.4-1.08-1.04-3.08-.96-5.46-.36-7.26.35-1.06.88-1.92,1.46-2.61.98-1.17,2.12-1.86,2.81-2.21.2-.1.19-.4-.03-.46-2.69-.72-4.78-1.14-6.44-1.65-1.85-.57-3.17-1.26-4.2-2.58-.21-.27-.41-.56-.6-.89-.15-.27-.3-.55-.44-.86-.35-.78-.63-1.63-.85-2.52-1.29-5.17-.51-11.66-.05-14.55.01-.07.03-.13.05-.19.02-.07.04-.14.07-.21.04-.09.08-.18.13-.26.31-.51.86-.84,1.49-.84h38.29l-.06-14.08c-.02-5.99-4.89-10.83-10.88-10.81-3.97.01-7.43,2.17-9.31,5.36-1.56-3.68-5.21-6.26-9.46-6.26s-7.51,2.33-9.19,5.71c-1.42-3.14-4.57-5.32-8.23-5.32-4.99,0-9.04,4.05-9.04,9.04v.4c-1.26-2.32-3.71-3.89-6.53-3.89-4.11,0-7.43,3.33-7.43,7.43v16c-.02.15-.05.3-.05.45v32.59c0,1.91.55,3.79,1.59,5.4l12.04,18.67-3.81,40.37c-2.01-2.53-4.55-5.16-7.75-7.87,0,0-5.17,10.51-4.35,21.55l-6.9-7.04c4.36-6.32,9.27-19.88-10.49-36.69,0,0-5.17,10.51-4.34,21.55l-6.9-7.04c4.36-6.32,9.27-19.88-10.48-36.69,0,0-2.67,5.43-3.87,12.58,1.27,1.69,2.22,3.61,2.56,5.68,0,0,0,0-.01,0-.77-1.35-1.74-2.58-2.84-3.7-8.36-8.55-24.44-10.84-24.44-10.84,0,0,1.92,15.8,10.08,24.39,1.17,1.23,2.46,2.31,3.9,3.18,0,0,0,0,0,0-2.19-.4-4.19-1.49-5.92-2.9-6.86,1.11-12.03,3.52-12.03,3.52,16.14,19.77,29.62,15.6,36.15,11.43l6.65,6.78c-10.82-.83-21.07,3.96-21.07,3.96,16.14,19.77,29.62,15.6,36.16,11.43l6.65,6.78c-10.82-.83-21.07,3.96-21.07,3.96.02.02.03.04.05.06-.03.02-.05.02-.05.02,4.97,6.09,9.69,9.91,14.03,12.15h104.06c4.15-2.21,8.65-5.82,13.4-11.42,0,0-10.51-5.17-21.55-4.35l7.04-6.9c6.32,4.36,19.88,9.27,36.69-10.49,0,0-10.51-5.17-21.55-4.34l7.04-6.9c6.32,4.36,19.88,9.28,36.69-10.48,0,0-5.43-2.67-12.58-3.87Z"/>
</svg>