<?xml version="1.0" encoding="UTF-8"?>
<svg id="Layer_1" data-name="Layer 1" xmlns="http://www.w3.org/2000/svg" viewBox="0 0 150 137">
  <defs>
    <style>
      .cls-1 {
        fill: #3a6e64;
        stroke-width: 0px;
      }
    </style>
  </defs>
  <circle class="cls-1" cx="46.63" cy="25.34" r="25.1"/>
  <path class="cls-1" d="m125.97,53.61l-.81-1.87c-1.26-2.92-4.83-3.96-7.49-2.24-4.91,3.17-10.76,5.01-17.04,5.01s-12.02-1.81-16.9-4.92c-2.54-1.62-5.95-.82-7.38,1.83-.42.79-.81,1.59-1.16,2.42-.07-.42-16.33,56.22-22.09,76-.97,3.34,1.52,6.67,5,6.67,13.63,0,28.08,0,42.53,0s28.89,0,42.53,0c3.48,0,5.97-3.33,5-6.67-5.43-18.63-20.18-70.01-21.92-75.52-.08-.24-.17-.47-.26-.71Z"/>
  <path class="cls-1" d="m46.76,133.6c6.24-21.47,20.49-71.05,23.58-81.3.31-1.04-.06-2.2-.99-2.78-2.08-1.3-4.84-1.45-7.16-.12-4.59,2.61-9.9,4.11-15.56,4.11s-10.97-1.49-15.56-4.11c-3.56-2.03-8.12-.62-9.75,3.13-.04.1-.09.21-.13.31-.06-.39-13.87,47.66-20.55,70.69-1.74,6,2.75,11.98,9,11.98,11.25,0,22.97,0,34.71,0,1.14,0,2.08-.79,2.4-1.88,0,0,0-.01,0-.02Z"/>
  <circle class="cls-1" cx="100.63" cy="26.34" r="25.1"/>
</svg>