<?xml version="1.0" encoding="UTF-8"?>
<svg id="Layer_1" data-name="Layer 1" xmlns="http://www.w3.org/2000/svg" viewBox="0 0 278.5 279.5">
  <defs>
    <style>
      .cls-1 {
        fill: #fff;
      }

      .cls-1, .cls-2 {
        stroke-width: 0px;
      }

      .cls-2 {
        fill: #9ac1b9;
      }
    </style>
  </defs>
  <rect class="cls-1" x=".25" y="1.25" width="278" height="278" rx="25.76" ry="25.76"/>
  <g>
    <rect class="cls-2" x="48.25" y="68.25" width="17" height="181" rx="7.37" ry="7.37"/>
    <rect class="cls-2" x="219.25" y="68.25" width="17" height="181" rx="7.17" ry="7.17"/>
    <g>
      <path class="cls-2" d="m141.54,102.55c-6.5,0-11.76,5.27-11.76,11.76s5.27,11.76,11.76,11.76,11.76-5.27,11.76-11.76-5.27-11.76-11.76-11.76Zm1.68,19.68h-2.54v-12.31h-1.96v-1.8c1.96,0,2.4-.95,2.79-2.03h1.71v16.14Z"/>
      <path class="cls-2" d="m56.75,76v47s37.5,31.38,171,4.82v-47c-133.5,26.57-171-4.82-171-4.82Zm84.79,55.38c-9.43,0-17.07-7.64-17.07-17.07s7.64-17.07,17.07-17.07,17.07,7.64,17.07,17.07-7.64,17.07-17.07,17.07Z"/>
    </g>
  </g>
</svg>