<?xml version="1.0" encoding="UTF-8"?>
<svg id="Layer_2" data-name="Layer 2" xmlns="http://www.w3.org/2000/svg" xmlns:xlink="http://www.w3.org/1999/xlink" viewBox="0 0 2000 2000">
  <defs>
    <style>
      .cls-1 {
        filter: url(#drop-shadow-1);
      }

      .cls-2 {
        fill: #fff;
        stroke-width: 0px;
      }
    </style>
    <filter id="drop-shadow-1" filterUnits="userSpaceOnUse">
      <feOffset dx="7" dy="7"/>
      <feGaussianBlur result="blur" stdDeviation="5"/>
      <feFlood flood-color="#000" flood-opacity=".15"/>
      <feComposite in2="blur" operator="in"/>
      <feComposite in="SourceGraphic"/>
    </filter>
  </defs>
  <g class="cls-1">
    <path class="cls-2" d="m1112.66,568.9h68.77v68.77c0,21.33,17.29,38.62,38.62,38.62h0c21.33,0,38.62-17.29,38.62-38.62v-68.77h68.77c21.33,0,38.62-17.29,38.62-38.62h0c0-21.33-17.29-38.62-38.62-38.62h-68.77v-68.77c0-21.33-17.29-38.62-38.62-38.62h0c-21.33,0-38.62,17.29-38.62,38.62v68.77h-68.77c-21.33,0-38.62,17.29-38.62,38.62h0c0,21.33,17.29,38.62,38.62,38.62Z"/>
    <path class="cls-2" d="m406.5,969.43c30.88,0,55.91-25.03,55.91-55.91v-99.56h99.56c30.88,0,55.91-25.03,55.91-55.91h0c0-30.88-25.03-55.91-55.91-55.91h-99.56v-99.56c0-30.88-25.03-55.91-55.91-55.91h0c-30.88,0-55.91,25.03-55.91,55.91v99.56h-99.56c-30.88,0-55.91,25.03-55.91,55.91h0c0,30.88,25.03,55.91,55.91,55.91h99.56v99.56c0,30.88,25.03,55.91,55.91,55.91h0Z"/>
    <path class="cls-2" d="m800.18,408.73h60.99v60.99c0,18.91,15.33,34.25,34.25,34.25h0c18.91,0,34.25-15.33,34.25-34.25v-60.99h60.99c18.91,0,34.25-15.33,34.25-34.25h0c0-18.92-15.33-34.25-34.25-34.25h-60.99v-60.99c0-18.91-15.33-34.25-34.25-34.25h0c-18.91,0-34.25,15.33-34.25,34.25v60.99h-60.99c-18.91,0-34.25,15.33-34.25,34.25h0c0,18.92,15.33,34.25,34.25,34.25Z"/>
    <path class="cls-2" d="m1563.49,1481.47h-47.73v-47.73c0-14.8-12-26.8-26.8-26.8h0c-14.8,0-26.8,12-26.8,26.8v47.73h-47.73c-14.8,0-26.8,12-26.8,26.8h0c0,14.8,12,26.8,26.8,26.8h47.73v47.73c0,14.8,12,26.8,26.8,26.8h0c14.8,0,26.8-12,26.8-26.8v-47.73h47.73c14.8,0,26.8-12,26.8-26.8h0c0-14.8-12-26.8-26.8-26.8Z"/>
    <path class="cls-2" d="m619.7,1553.49h-60.99v-60.99c0-18.91-15.33-34.25-34.25-34.25h0c-18.91,0-34.25,15.33-34.25,34.25v60.99h-60.99c-18.91,0-34.25,15.33-34.25,34.25h0c0,18.92,15.33,34.25,34.25,34.25h60.99v60.99c0,18.91,15.33,34.25,34.25,34.25h0c18.91,0,34.25-15.33,34.25-34.25v-60.99h60.99c18.91,0,34.25-15.33,34.25-34.25h0c0-18.92-15.33-34.25-34.25-34.25Z"/>
    <path class="cls-2" d="m992.22,696.35c-221.6,0-401.24,179.64-401.24,401.23s179.64,401.23,401.24,401.23,401.23-179.64,401.23-401.23-179.63-401.23-401.23-401.23Zm258.26,401.23c0,37.73-30.58,68.31-68.31,68.31h-121.64v121.64c0,37.73-30.58,68.31-68.31,68.31s-68.31-30.58-68.31-68.31v-121.64h-121.65c-37.73,0-68.31-30.58-68.31-68.31h0c0-37.73,30.58-68.31,68.31-68.31h121.65v-121.64c0-37.73,30.58-68.31,68.31-68.31s68.31,30.58,68.31,68.31v121.64h121.64c37.73,0,68.31,30.59,68.31,68.31h0Z"/>
    <path class="cls-2" d="m1741.21,918.27h-115.53v-115.51c0-35.83-29.04-64.87-64.86-64.87s-64.87,29.04-64.87,64.87v115.51h-74.03c16.99,40.65,28.36,84.21,33.18,129.74h40.84v115.52c0,35.83,29.04,64.87,64.87,64.87s64.86-29.04,64.86-64.87v-115.52h115.53c35.82,0,64.87-29.04,64.87-64.87h0c0-35.83-29.06-64.87-64.87-64.87Z"/>
  </g>
</svg>