<?xml version="1.0" encoding="UTF-8"?>
<svg id="Layer_2" data-name="Layer 2" xmlns="http://www.w3.org/2000/svg" xmlns:xlink="http://www.w3.org/1999/xlink" viewBox="0 0 2000 2000">
  <defs>
    <style>
      .cls-1 {
        filter: url(#drop-shadow-1);
      }

      .cls-2 {
        fill: #fff;
        stroke-width: 0px;
      }
    </style>
    <filter id="drop-shadow-1" filterUnits="userSpaceOnUse">
      <feOffset dx="7" dy="7"/>
      <feGaussianBlur result="blur" stdDeviation="5"/>
      <feFlood flood-color="#000" flood-opacity=".15"/>
      <feComposite in2="blur" operator="in"/>
      <feComposite in="SourceGraphic"/>
    </filter>
  </defs>
  <g class="cls-1">
    <path class="cls-2" d="m1034.04,203.95c-430.21,0-778.96,348.75-778.96,778.96s348.75,778.96,778.96,778.96,778.96-348.75,778.96-778.96S1464.25,203.95,1034.04,203.95Zm0,1369.13c-147.17,0-281.76-53.88-385.12-142.97l298.05-256.39h-350.43l-88.83,76.42c-40.82-80.23-63.83-171.04-63.83-267.22,0-325.94,264.23-590.17,590.17-590.17,127.84,0,246.18,40.65,342.81,109.72l-348.96,300.19h350.43l155.5-133.77c57.26,90.94,90.4,198.61,90.4,314.02,0,325.94-264.23,590.17-590.17,590.17Z"/>
    <rect class="cls-2" x="579.85" y="998.39" width="84.85" height="34.55"/>
    <path class="cls-2" d="m690.53,910.98c-2.17,4.91-5.36,9.01-9.58,12.32-4.22,3.31-9.64,5.76-16.25,7.36-6.62,1.6-14.83,2.39-24.63,2.39v30.79h46.53v157.04h44.48v-227.17h-36.26c-.68,6.62-2.11,12.38-4.28,17.28Z"/>
    <path class="cls-2" d="m879.73,914.23c-6.73-9.58-14.94-16.65-24.63-21.21-9.7-4.56-20.7-6.84-33.02-6.84s-23.26,2.28-32.84,6.84c-9.58,4.57-17.68,11.69-24.29,21.38-6.62,9.7-11.63,22.13-15.05,37.29-3.42,15.17-5.13,33.36-5.13,54.57s1.71,39.86,5.13,55.25c3.42,15.4,8.44,28.05,15.05,37.98,6.61,9.92,14.71,17.28,24.29,22.07,9.58,4.79,20.53,7.18,32.84,7.18,24.4,0,43.62-9.97,57.65-29.94,14.03-19.96,21.04-51.03,21.04-93.23,0-21.21-1.83-39.34-5.47-54.4-3.65-15.05-8.84-27.37-15.57-36.95Zm-26.17,132.92c-1.37,10.84-3.37,19.62-5.99,26.34-2.62,6.73-5.93,11.63-9.92,14.71-3.99,3.08-8.72,4.62-14.2,4.62s-10.21-1.48-14.2-4.45c-3.99-2.96-7.36-7.87-10.09-14.71-2.74-6.84-4.79-15.74-6.16-26.69-1.37-10.95-2.05-24.29-2.05-40.03s.68-29.02,2.05-39.86c1.37-10.83,3.42-19.61,6.16-26.34,2.74-6.72,6.1-11.57,10.09-14.54,3.99-2.96,8.72-4.45,14.2-4.45s10.21,1.54,14.2,4.62c3.99,3.08,7.3,7.99,9.92,14.71,2.62,6.73,4.62,15.57,5.99,26.51s2.05,24.29,2.05,40.03-.68,28.69-2.05,39.52Z"/>
    <path class="cls-2" d="m1061.22,951.18c-3.65-15.05-8.84-27.37-15.57-36.95-6.73-9.58-14.94-16.65-24.63-21.21-9.7-4.56-20.7-6.84-33.02-6.84s-23.26,2.28-32.84,6.84c-9.58,4.57-17.68,11.69-24.29,21.38-6.62,9.7-11.63,22.13-15.05,37.29-3.42,15.17-5.13,33.36-5.13,54.57s1.71,39.86,5.13,55.25,8.44,28.05,15.05,37.98c6.61,9.92,14.71,17.28,24.29,22.07,9.58,4.79,20.53,7.18,32.84,7.18,24.4,0,43.62-9.97,57.65-29.94,14.03-19.96,21.04-51.03,21.04-93.23,0-21.21-1.83-39.34-5.47-54.4Zm-41.74,95.97c-1.37,10.84-3.37,19.62-5.99,26.34-2.62,6.73-5.93,11.63-9.92,14.71-3.99,3.08-8.72,4.62-14.2,4.62s-10.21-1.48-14.2-4.45c-3.99-2.96-7.36-7.87-10.09-14.71-2.74-6.84-4.79-15.74-6.16-26.69-1.37-10.95-2.05-24.29-2.05-40.03s.68-29.02,2.05-39.86c1.37-10.83,3.42-19.61,6.16-26.34,2.74-6.72,6.1-11.57,10.09-14.54,3.99-2.96,8.72-4.45,14.2-4.45s10.21,1.54,14.2,4.62c3.99,3.08,7.3,7.99,9.92,14.71,2.62,6.73,4.62,15.57,5.99,26.51,1.37,10.95,2.05,24.29,2.05,40.03s-.68,28.69-2.05,39.52Z"/>
    <polygon class="cls-2" points="1243.91 893.7 1188.83 893.7 1147.43 967.26 1106.38 893.7 1050.27 893.7 1119.72 1004.89 1046.16 1120.87 1101.59 1120.87 1147.43 1042.87 1190.88 1120.87 1248.7 1120.87 1174.8 1002.84 1243.91 893.7"/>
    <path class="cls-2" d="m1411.21,915.09c-6.39-6.72-14.03-11.97-22.92-15.74-8.9-3.76-18.93-5.64-30.11-5.64h-100.24v227.17h47.56v-82.45h52.69c11.17,0,21.21-1.76,30.11-5.3,8.9-3.53,16.53-8.44,22.92-14.71,6.38-6.27,11.29-13.8,14.71-22.58,3.42-8.78,5.13-18.3,5.13-28.57s-1.71-19.84-5.13-28.74c-3.42-8.9-8.33-16.71-14.71-23.44Zm-30.96,75.27c-6.05,6.28-15.91,9.41-29.59,9.41h-45.16v-66.71h45.16c13.68,0,23.55,3.08,29.59,9.24,6.04,6.16,9.07,14.03,9.07,23.61s-3.03,18.19-9.07,24.46Z"/>
  </g>
</svg>