<?xml version="1.0" encoding="UTF-8"?>
<svg id="Layer_2" data-name="Layer 2" xmlns="http://www.w3.org/2000/svg" xmlns:xlink="http://www.w3.org/1999/xlink" viewBox="0 0 2000 2000">
  <defs>
    <style>
      .cls-1 {
        filter: url(#drop-shadow-1);
      }

      .cls-2 {
        fill: #fff;
        stroke-width: 0px;
      }
    </style>
    <filter id="drop-shadow-1" filterUnits="userSpaceOnUse">
      <feOffset dx="7" dy="7"/>
      <feGaussianBlur result="blur" stdDeviation="5"/>
      <feFlood flood-color="#000" flood-opacity=".15"/>
      <feComposite in2="blur" operator="in"/>
      <feComposite in="SourceGraphic"/>
    </filter>
  </defs>
  <g class="cls-1">
    <rect class="cls-2" x="813.79" y="224" width="417.14" height="175.42" rx="15.79" ry="15.79"/>
    <path class="cls-2" d="m1646.17,616.86c3.37-3.37,3.37-8.83,0-12.2l-63.38-63.38c-3.37-3.37-8.83-3.37-12.2,0l-83.41,83.41c-119.82-114.73-282.24-185.31-460.85-185.31s-341.03,70.59-460.85,185.32l-83.41-83.41c-3.37-3.37-8.83-3.37-12.2,0l-63.38,63.38c-3.37,3.37-3.37,8.83,0,12.2l87.8,87.8c-84.56,111.77-134.77,250.89-134.77,401.53,0,367.68,299.13,666.82,666.82,666.82s666.82-299.13,666.82-666.82c0-150.64-50.22-289.76-134.78-401.53l87.8-87.8Zm-619.83,1041.42c-304.42,0-552.09-247.67-552.09-552.09s247.68-552.09,552.09-552.09,552.09,247.67,552.09,552.09-247.68,552.09-552.09,552.09Z"/>
    <path class="cls-2" d="m1026.38,635.03v71.7c207.62,0,378.74,159.21,397.71,361.94-9.59,9.61-15.52,22.87-15.52,37.52,0,29.33,23.78,53.11,53.11,53.11s53.11-23.78,53.11-53.11c0-16.35-7.39-30.96-19.01-40.71-20.7-240.81-223.33-430.44-469.42-430.44Z"/>
    <path class="cls-2" d="m1360.19,1079.69l-257.63.16c-10.92-31.61-40.92-54.32-76.24-54.32-44.55,0-80.66,36.11-80.66,80.66s36.11,80.66,80.66,80.66c35.32,0,65.32-22.71,76.24-54.32l257.63.16h.03c14.63,0,26.49-11.88,26.48-26.51-.01-14.63-11.88-26.49-26.51-26.48Z"/>
  </g>
</svg>