<?xml version="1.0" encoding="UTF-8"?>
<svg id="Layer_1" data-name="Layer 1" xmlns="http://www.w3.org/2000/svg" width="39.02" height="39.02" viewBox="0 0 39.02 39.02">
  <defs>
    <style>
      .cls-1 {
        fill: #b2b2b2;
      }

      .cls-1, .cls-2 {
        stroke-width: 0px;
      }

      .cls-2 {
        fill: #e5e5e5;
      }
    </style>
  </defs>
  <circle class="cls-2" cx="19.51" cy="19.51" r="19.51"/>
  <path class="cls-1" d="m17.65,22.3c-3.84,0-6.97-3.13-6.97-6.97s3.13-6.97,6.97-6.97,6.97,3.13,6.97,6.97-3.13,6.97-6.97,6.97Zm0-11.15c-2.31,0-4.18,1.88-4.18,4.18s1.88,4.18,4.18,4.18,4.18-1.88,4.18-4.18-1.88-4.18-4.18-4.18Z"/>
  <path class="cls-1" d="m26.69,29.33c-.42,0-.84-.19-1.11-.55l-5.29-6.97c-.47-.61-.35-1.49.27-1.95.61-.47,1.49-.35,1.95.27l5.29,6.97c.47.61.35,1.49-.27,1.95-.25.19-.55.28-.84.28Z"/>
</svg>