<?xml version="1.0" encoding="UTF-8"?>
<svg id="Layer_1" data-name="Layer 1" xmlns="http://www.w3.org/2000/svg" width="41" height="43" viewBox="0 0 41 43">
  <defs>
    <style>
      .cls-1 {
        fill: #b2b2b2;
      }

      .cls-1, .cls-2, .cls-3, .cls-4 {
        stroke-width: 0px;
      }

      .cls-2 {
        fill: #ea7f09;
      }

      .cls-3 {
        fill: #e5e5e5;
      }

      .cls-4 {
        fill: #ecae69;
      }
    </style>
  </defs>
  <g>
    <path class="cls-3" d="m40.02,22.51c0,10.78-8.74,19.51-19.51,19.51-10.78,0-19.51-8.74-19.51-19.51S9.74,3,20.51,3c10.78,0,19.51,8.74,19.51,19.51Z"/>
    <path class="cls-1" d="m18.65,25.3c-3.84,0-6.97-3.13-6.97-6.97s3.13-6.97,6.97-6.97,6.97,3.13,6.97,6.97-3.13,6.97-6.97,6.97Zm0-11.15c-2.31,0-4.18,1.88-4.18,4.18s1.88,4.18,4.18,4.18,4.18-1.88,4.18-4.18-1.88-4.18-4.18-4.18Z"/>
    <path class="cls-1" d="m27.69,32.33c-.42,0-.84-.19-1.11-.55l-5.29-6.97c-.47-.61-.35-1.49.27-1.95.61-.47,1.49-.35,1.95.27l5.29,6.97c.47.61.35,1.49-.27,1.95-.25.19-.55.28-.84.28Z"/>
  </g>
  <g>
    <path class="cls-2" d="m40.02,22.51c0,10.78-8.74,19.51-19.51,19.51-10.78,0-19.51-8.74-19.51-19.51S9.74,3,20.51,3c10.78,0,19.51,8.74,19.51,19.51Z"/>
    <path class="cls-4" d="m18.65,25.3c-3.84,0-6.97-3.13-6.97-6.97s3.13-6.97,6.97-6.97,6.97,3.13,6.97,6.97-3.13,6.97-6.97,6.97Zm0-11.15c-2.31,0-4.18,1.88-4.18,4.18s1.88,4.18,4.18,4.18,4.18-1.88,4.18-4.18-1.88-4.18-4.18-4.18Z"/>
    <path class="cls-4" d="m27.69,32.33c-.42,0-.84-.19-1.11-.55l-5.29-6.97c-.47-.61-.35-1.49.27-1.95.61-.47,1.49-.35,1.95.27l5.29,6.97c.47.61.35,1.49-.27,1.95-.25.19-.55.28-.84.28Z"/>
  </g>
</svg>